<svg viewBox="0 0 655.528294992 336.466277921" width="655.528294992pt" height="336.466277921pt" xmlns="http://www.w3.org/2000/svg" xmlns:xlink="http://www.w3.org/1999/xlink" xmlns:h5="http://www.w3.org/1999/xhtml"><path fill="#ffffff" fill-rule="nonzero" d="M 0 0v 336.466277921h 655.528294992v -336.466277921Z "/><g transform="translate(70.866141732 70.866141732)"><g><path fill="none" stroke="#000000" stroke-width="1" stroke-linecap="butt" stroke-linejoin="miter" stroke-miterlimit="4" transform="translate(146.43699622)" d="M 0 0m 53.3775 0c -29.45285046 0 -53.3775 9.017657704 -53.3775 20.119c 0 11.101342296 23.92464954 20.119 53.3775 20.119c 29.45285046 0 53.3775 -9.017657704 53.3775 -20.119c 0 -11.101342296 -23.92464954 -20.119 -53.3775 -20.119Z "/><path fill="none" transform="translate(162.93699622 16.5)" d="M 0 0h 73.755v 7.238h -73.755v -7.238Z "/><g transform="translate(162.936996079 16.499999937)"><g><g transform="matrix(1 0 0 -1 0 7.238)"><use xlink:href="#gF9560AC257AD9BBCF737B0F29E336B2F" x="0" y="0" fill="#000000" fill-rule="nonzero"/><use xlink:href="#g36F90904A4043C6A677E73471A30013F" x="5.709" y="0" fill="#000000" fill-rule="nonzero"/><use xlink:href="#g9787446D80B11CDE2529516BF2D1ACCA" x="8.613" y="0" fill="#000000" fill-rule="nonzero"/><use xlink:href="#g3CE57ED74C3DBA63F54F2735C0855367" x="13.64" y="0" fill="#000000" fill-rule="nonzero"/><use xlink:href="#gBFE09989B12480F1B7796D69E0D7287C" x="18.348" y="0" fill="#000000" fill-rule="nonzero"/><use xlink:href="#g525D29E90AD4E5DCC336104F62B1760B" x="23.265" y="0" fill="#000000" fill-rule="nonzero"/><use xlink:href="#g5E76F8DBE7C3C7A9A461E8EC1D70F6FB" x="29.183" y="0" fill="#000000" fill-rule="nonzero"/><use xlink:href="#g36F90904A4043C6A677E73471A30013F" x="34.727" y="0" fill="#000000" fill-rule="nonzero"/><use xlink:href="#g7FF42B92D9D80783DC2C1CC317042C56" x="37.631" y="0" fill="#000000" fill-rule="nonzero"/><use xlink:href="#gBFE09989B12480F1B7796D69E0D7287C" x="43.197" y="0" fill="#000000" fill-rule="nonzero"/><use xlink:href="#gD91D82170ED5F219BEA1B53E81DC19AF" x="48.114" y="0" fill="#000000" fill-rule="nonzero"/><use xlink:href="#g1A21308A8093B77381851E026859DC0C" x="52.206" y="0" fill="#000000" fill-rule="nonzero"/><use xlink:href="#g56988988A1B18AD1D268C4FF00F68428" x="55.924" y="0" fill="#000000" fill-rule="nonzero"/><use xlink:href="#gBFE09989B12480F1B7796D69E0D7287C" x="63.03" y="0" fill="#000000" fill-rule="nonzero"/><use xlink:href="#g36F90904A4043C6A677E73471A30013F" x="67.947" y="0" fill="#000000" fill-rule="nonzero"/><use xlink:href="#g36F90904A4043C6A677E73471A30013F" x="70.851" y="0" fill="#000000" fill-rule="nonzero"/></g></g></g><path fill="none" stroke="#000000" stroke-width="1" stroke-linecap="butt" stroke-linejoin="miter" stroke-miterlimit="4" transform="translate(253.780011591 77.247993543)" d="M 0 0m 73.0345 0c -40.299268548 0 -73.0345 9.017657704 -73.0345 20.119c 0 11.101342296 32.735231452 20.119 73.0345 20.119c 40.299268548 0 73.0345 -9.017657704 73.0345 -20.119c 0 -11.101342296 -32.735231452 -20.119 -73.0345 -20.119Z "/><path fill="none" transform="translate(270.280011479 93.747993469)" d="M 0 0h 113.069v 7.238h -113.069v -7.238Z "/><g transform="translate(270.280011416 93.747993406)"><g><g transform="matrix(1 0 0 -1 0 7.238)"><use xlink:href="#gF9560AC257AD9BBCF737B0F29E336B2F" x="0" y="0" fill="#000000" fill-rule="nonzero"/><use xlink:href="#g36F90904A4043C6A677E73471A30013F" x="5.709" y="0" fill="#000000" fill-rule="nonzero"/><use xlink:href="#g9787446D80B11CDE2529516BF2D1ACCA" x="8.613" y="0" fill="#000000" fill-rule="nonzero"/><use xlink:href="#g3CE57ED74C3DBA63F54F2735C0855367" x="13.64" y="0" fill="#000000" fill-rule="nonzero"/><use xlink:href="#gBFE09989B12480F1B7796D69E0D7287C" x="18.348" y="0" fill="#000000" fill-rule="nonzero"/><use xlink:href="#g525D29E90AD4E5DCC336104F62B1760B" x="23.265" y="0" fill="#000000" fill-rule="nonzero"/><use xlink:href="#g5E76F8DBE7C3C7A9A461E8EC1D70F6FB" x="29.183" y="0" fill="#000000" fill-rule="nonzero"/><use xlink:href="#g36F90904A4043C6A677E73471A30013F" x="34.727" y="0" fill="#000000" fill-rule="nonzero"/><use xlink:href="#g7FF42B92D9D80783DC2C1CC317042C56" x="37.631" y="0" fill="#000000" fill-rule="nonzero"/><use xlink:href="#gBFE09989B12480F1B7796D69E0D7287C" x="43.197" y="0" fill="#000000" fill-rule="nonzero"/><use xlink:href="#gD91D82170ED5F219BEA1B53E81DC19AF" x="48.114" y="0" fill="#000000" fill-rule="nonzero"/><use xlink:href="#g1A21308A8093B77381851E026859DC0C" x="52.206" y="0" fill="#000000" fill-rule="nonzero"/><use xlink:href="#gD14A2C15FA7E7E6DA17092C3143CABC8" x="55.924" y="0" fill="#000000" fill-rule="nonzero"/><use xlink:href="#g8FE23DF7094EE2D558758B421CB0DF33" x="59.334" y="0" fill="#000000" fill-rule="nonzero"/><use xlink:href="#gEB245AFE22C398BE296AC5F7AF6ADF12" x="65.175" y="0" fill="#000000" fill-rule="nonzero"/><use xlink:href="#g3CE57ED74C3DBA63F54F2735C0855367" x="71.137" y="0" fill="#000000" fill-rule="nonzero"/><use xlink:href="#gB38329E71763B8BD4CF776D24C5AFFE1" x="75.845" y="0" fill="#000000" fill-rule="nonzero"/><use xlink:href="#gDD50B131DFBA2C7EA73123CA4C98C33" x="79.321" y="0" fill="#000000" fill-rule="nonzero"/><use xlink:href="#g5E76F8DBE7C3C7A9A461E8EC1D70F6FB" x="82.302" y="0" fill="#000000" fill-rule="nonzero"/><use xlink:href="#gEB245AFE22C398BE296AC5F7AF6ADF12" x="87.846" y="0" fill="#000000" fill-rule="nonzero"/><use xlink:href="#g1A21308A8093B77381851E026859DC0C" x="93.808" y="0" fill="#000000" fill-rule="nonzero"/><use xlink:href="#g3CE57ED74C3DBA63F54F2735C0855367" x="97.526" y="0" fill="#000000" fill-rule="nonzero"/><use xlink:href="#g9787446D80B11CDE2529516BF2D1ACCA" x="102.234" y="0" fill="#000000" fill-rule="nonzero"/><use xlink:href="#g36F90904A4043C6A677E73471A30013F" x="107.261" y="0" fill="#000000" fill-rule="nonzero"/><use xlink:href="#g36F90904A4043C6A677E73471A30013F" x="110.165" y="0" fill="#000000" fill-rule="nonzero"/></g></g></g><path fill="none" stroke="#000000" stroke-width="1" stroke-linecap="butt" stroke-linejoin="miter" stroke-miterlimit="4" transform="translate(35.173996346 77.247993543)" d="M 0 0m 85.6405 0c -47.255057652 0 -85.6405 9.017657704 -85.6405 20.119c 0 11.101342296 38.385442348 20.119 85.6405 20.119c 47.255057652 0 85.6405 -9.017657704 85.6405 -20.119c 0 -11.101342296 -38.385442348 -20.119 -85.6405 -20.119Z "/><path fill="none" transform="translate(51.67399622 93.747993469)" d="M 0 0h 138.281v 7.238h -138.281v -7.238Z "/><g transform="translate(51.673996205 93.747993406)"><g><g transform="matrix(1 0 0 -1 0 7.238)"><use xlink:href="#gF9560AC257AD9BBCF737B0F29E336B2F" x="0" y="0" fill="#000000" fill-rule="nonzero"/><use xlink:href="#g36F90904A4043C6A677E73471A30013F" x="5.709" y="0" fill="#000000" fill-rule="nonzero"/><use xlink:href="#g9787446D80B11CDE2529516BF2D1ACCA" x="8.613" y="0" fill="#000000" fill-rule="nonzero"/><use xlink:href="#g3CE57ED74C3DBA63F54F2735C0855367" x="13.64" y="0" fill="#000000" fill-rule="nonzero"/><use xlink:href="#gBFE09989B12480F1B7796D69E0D7287C" x="18.348" y="0" fill="#000000" fill-rule="nonzero"/><use xlink:href="#g525D29E90AD4E5DCC336104F62B1760B" x="23.265" y="0" fill="#000000" fill-rule="nonzero"/><use xlink:href="#g5E76F8DBE7C3C7A9A461E8EC1D70F6FB" x="29.183" y="0" fill="#000000" fill-rule="nonzero"/><use xlink:href="#g36F90904A4043C6A677E73471A30013F" x="34.727" y="0" fill="#000000" fill-rule="nonzero"/><use xlink:href="#g7FF42B92D9D80783DC2C1CC317042C56" x="37.631" y="0" fill="#000000" fill-rule="nonzero"/><use xlink:href="#gBFE09989B12480F1B7796D69E0D7287C" x="43.197" y="0" fill="#000000" fill-rule="nonzero"/><use xlink:href="#gD91D82170ED5F219BEA1B53E81DC19AF" x="48.114" y="0" fill="#000000" fill-rule="nonzero"/><use xlink:href="#g1A21308A8093B77381851E026859DC0C" x="52.206" y="0" fill="#000000" fill-rule="nonzero"/><use xlink:href="#gDD50B131DFBA2C7EA73123CA4C98C33" x="55.924" y="0" fill="#000000" fill-rule="nonzero"/><use xlink:href="#gEB245AFE22C398BE296AC5F7AF6ADF12" x="58.905" y="0" fill="#000000" fill-rule="nonzero"/><use xlink:href="#gF9560AC257AD9BBCF737B0F29E336B2F" x="64.867" y="0" fill="#000000" fill-rule="nonzero"/><use xlink:href="#g8FE23DF7094EE2D558758B421CB0DF33" x="70.576" y="0" fill="#000000" fill-rule="nonzero"/><use xlink:href="#gB38329E71763B8BD4CF776D24C5AFFE1" x="76.417" y="0" fill="#000000" fill-rule="nonzero"/><use xlink:href="#g1A21308A8093B77381851E026859DC0C" x="79.893" y="0" fill="#000000" fill-rule="nonzero"/><use xlink:href="#gD14A2C15FA7E7E6DA17092C3143CABC8" x="83.611" y="0" fill="#000000" fill-rule="nonzero"/><use xlink:href="#gD91D82170ED5F219BEA1B53E81DC19AF" x="87.021" y="0" fill="#000000" fill-rule="nonzero"/><use xlink:href="#g5E76F8DBE7C3C7A9A461E8EC1D70F6FB" x="91.025" y="0" fill="#000000" fill-rule="nonzero"/><use xlink:href="#gF9510C9866DCA99AFC3FC8A8DB318BDC" x="96.569" y="0" fill="#000000" fill-rule="nonzero"/><use xlink:href="#g1A21308A8093B77381851E026859DC0C" x="105.259" y="0" fill="#000000" fill-rule="nonzero"/><use xlink:href="#g4E5D026409004C23B788CF76C0C2AF69" x="108.977" y="0" fill="#000000" fill-rule="nonzero"/><use xlink:href="#g5E76F8DBE7C3C7A9A461E8EC1D70F6FB" x="113.267" y="0" fill="#000000" fill-rule="nonzero"/><use xlink:href="#g8FE23DF7094EE2D558758B421CB0DF33" x="118.811" y="0" fill="#000000" fill-rule="nonzero"/><use xlink:href="#gD91D82170ED5F219BEA1B53E81DC19AF" x="124.652" y="0" fill="#000000" fill-rule="nonzero"/><use xlink:href="#g3CE57ED74C3DBA63F54F2735C0855367" x="128.656" y="0" fill="#000000" fill-rule="nonzero"/><use xlink:href="#gBFE09989B12480F1B7796D69E0D7287C" x="133.364" y="0" fill="#000000" fill-rule="nonzero"/></g></g></g><path fill="none" stroke="#000000" stroke-width="1" stroke-linecap="butt" stroke-linejoin="miter" stroke-miterlimit="4" transform="translate(30.737996315)" d="M 0 0m 49.0765 0c -27.079627476 0 -49.0765 9.017657704 -49.0765 20.119c 0 11.101342296 21.996872524 20.119 49.0765 20.119c 27.079627476 0 49.0765 -9.017657704 49.0765 -20.119c 0 -11.101342296 -21.996872524 -20.119 -49.0765 -20.119Z "/><path fill="none" transform="translate(47.23799622 16.5)" d="M 0 0h 65.153v 7.238h -65.153v -7.238Z "/><g transform="translate(47.237996157 16.499999937)"><g><g transform="matrix(1 0 0 -1 0 7.238)"><use xlink:href="#gF9560AC257AD9BBCF737B0F29E336B2F" x="0" y="0" fill="#000000" fill-rule="nonzero"/><use xlink:href="#g36F90904A4043C6A677E73471A30013F" x="5.709" y="0" fill="#000000" fill-rule="nonzero"/><use xlink:href="#g9787446D80B11CDE2529516BF2D1ACCA" x="8.613" y="0" fill="#000000" fill-rule="nonzero"/><use xlink:href="#g3CE57ED74C3DBA63F54F2735C0855367" x="13.64" y="0" fill="#000000" fill-rule="nonzero"/><use xlink:href="#gBFE09989B12480F1B7796D69E0D7287C" x="18.348" y="0" fill="#000000" fill-rule="nonzero"/><use xlink:href="#g525D29E90AD4E5DCC336104F62B1760B" x="23.265" y="0" fill="#000000" fill-rule="nonzero"/><use xlink:href="#g5E76F8DBE7C3C7A9A461E8EC1D70F6FB" x="29.183" y="0" fill="#000000" fill-rule="nonzero"/><use xlink:href="#g36F90904A4043C6A677E73471A30013F" x="34.727" y="0" fill="#000000" fill-rule="nonzero"/><use xlink:href="#g7FF42B92D9D80783DC2C1CC317042C56" x="37.631" y="0" fill="#000000" fill-rule="nonzero"/><use xlink:href="#gBFE09989B12480F1B7796D69E0D7287C" x="43.197" y="0" fill="#000000" fill-rule="nonzero"/><use xlink:href="#gD91D82170ED5F219BEA1B53E81DC19AF" x="48.114" y="0" fill="#000000" fill-rule="nonzero"/><use xlink:href="#g1A21308A8093B77381851E026859DC0C" x="52.206" y="0" fill="#000000" fill-rule="nonzero"/><use xlink:href="#g21CC2BA9157DFD492B07A3D0DECDE432" x="55.924" y="0" fill="#000000" fill-rule="nonzero"/><use xlink:href="#gEB245AFE22C398BE296AC5F7AF6ADF12" x="59.191" y="0" fill="#000000" fill-rule="nonzero"/></g></g></g><path fill="none" stroke="#000000" stroke-width="1" stroke-linecap="butt" stroke-linejoin="miter" stroke-miterlimit="4" transform="translate(407.833011528)" d="M 0 0m 52.9815 0c -29.234343996 0 -52.9815 9.017657704 -52.9815 20.119c 0 11.101342296 23.747156004 20.119 52.9815 20.119c 29.234343996 0 52.9815 -9.017657704 52.9815 -20.119c 0 -11.101342296 -23.747156004 -20.119 -52.9815 -20.119Z "/><path fill="none" transform="translate(424.333011479 16.5)" d="M 0 0h 72.963v 7.238h -72.963v -7.238Z "/><g transform="translate(424.333011338 16.499999937)"><g><g transform="matrix(1 0 0 -1 0 7.238)"><use xlink:href="#gF9560AC257AD9BBCF737B0F29E336B2F" x="0" y="0" fill="#000000" fill-rule="nonzero"/><use xlink:href="#g36F90904A4043C6A677E73471A30013F" x="5.709" y="0" fill="#000000" fill-rule="nonzero"/><use xlink:href="#g9787446D80B11CDE2529516BF2D1ACCA" x="8.613" y="0" fill="#000000" fill-rule="nonzero"/><use xlink:href="#g3CE57ED74C3DBA63F54F2735C0855367" x="13.64" y="0" fill="#000000" fill-rule="nonzero"/><use xlink:href="#gBFE09989B12480F1B7796D69E0D7287C" x="18.348" y="0" fill="#000000" fill-rule="nonzero"/><use xlink:href="#g525D29E90AD4E5DCC336104F62B1760B" x="23.265" y="0" fill="#000000" fill-rule="nonzero"/><use xlink:href="#g5E76F8DBE7C3C7A9A461E8EC1D70F6FB" x="29.183" y="0" fill="#000000" fill-rule="nonzero"/><use xlink:href="#g36F90904A4043C6A677E73471A30013F" x="34.727" y="0" fill="#000000" fill-rule="nonzero"/><use xlink:href="#g7FF42B92D9D80783DC2C1CC317042C56" x="37.631" y="0" fill="#000000" fill-rule="nonzero"/><use xlink:href="#gBFE09989B12480F1B7796D69E0D7287C" x="43.197" y="0" fill="#000000" fill-rule="nonzero"/><use xlink:href="#gD91D82170ED5F219BEA1B53E81DC19AF" x="48.114" y="0" fill="#000000" fill-rule="nonzero"/><use xlink:href="#g1A21308A8093B77381851E026859DC0C" x="52.206" y="0" fill="#000000" fill-rule="nonzero"/><use xlink:href="#g214031308B8AA922748E7B1D12139F87" x="55.924" y="0" fill="#000000" fill-rule="nonzero"/><use xlink:href="#g8FE23DF7094EE2D558758B421CB0DF33" x="63.646" y="0" fill="#000000" fill-rule="nonzero"/><use xlink:href="#gB38329E71763B8BD4CF776D24C5AFFE1" x="69.487" y="0" fill="#000000" fill-rule="nonzero"/></g></g></g><path fill="none" stroke="#000000" stroke-width="1" stroke-linecap="butt" stroke-linejoin="miter" stroke-miterlimit="4" transform="translate(271.409011559)" d="M 0 0m 59.4055 0c -32.779004412 0 -59.4055 9.017657704 -59.4055 20.119c 0 11.101342296 26.626495588 20.119 59.4055 20.119c 32.779004412 0 59.4055 -9.017657704 59.4055 -20.119c 0 -11.101342296 -26.626495588 -20.119 -59.4055 -20.119Z "/><path fill="none" transform="translate(287.909011479 16.5)" d="M 0 0h 85.811v 7.238h -85.811v -7.238Z "/><g transform="translate(287.909011464 16.499999937)"><g><g transform="matrix(1 0 0 -1 0 7.238)"><use xlink:href="#gF9560AC257AD9BBCF737B0F29E336B2F" x="0" y="0" fill="#000000" fill-rule="nonzero"/><use xlink:href="#g36F90904A4043C6A677E73471A30013F" x="5.709" y="0" fill="#000000" fill-rule="nonzero"/><use xlink:href="#g9787446D80B11CDE2529516BF2D1ACCA" x="8.613" y="0" fill="#000000" fill-rule="nonzero"/><use xlink:href="#g3CE57ED74C3DBA63F54F2735C0855367" x="13.64" y="0" fill="#000000" fill-rule="nonzero"/><use xlink:href="#gBFE09989B12480F1B7796D69E0D7287C" x="18.348" y="0" fill="#000000" fill-rule="nonzero"/><use xlink:href="#g525D29E90AD4E5DCC336104F62B1760B" x="23.265" y="0" fill="#000000" fill-rule="nonzero"/><use xlink:href="#g5E76F8DBE7C3C7A9A461E8EC1D70F6FB" x="29.183" y="0" fill="#000000" fill-rule="nonzero"/><use xlink:href="#g36F90904A4043C6A677E73471A30013F" x="34.727" y="0" fill="#000000" fill-rule="nonzero"/><use xlink:href="#g7FF42B92D9D80783DC2C1CC317042C56" x="37.631" y="0" fill="#000000" fill-rule="nonzero"/><use xlink:href="#gBFE09989B12480F1B7796D69E0D7287C" x="43.197" y="0" fill="#000000" fill-rule="nonzero"/><use xlink:href="#gD91D82170ED5F219BEA1B53E81DC19AF" x="48.114" y="0" fill="#000000" fill-rule="nonzero"/><use xlink:href="#g1A21308A8093B77381851E026859DC0C" x="52.206" y="0" fill="#000000" fill-rule="nonzero"/><use xlink:href="#g5E76F8DBE7C3C7A9A461E8EC1D70F6FB" x="55.924" y="0" fill="#000000" fill-rule="nonzero"/><use xlink:href="#g8FE23DF7094EE2D558758B421CB0DF33" x="61.468" y="0" fill="#000000" fill-rule="nonzero"/><use xlink:href="#gB38329E71763B8BD4CF776D24C5AFFE1" x="67.309" y="0" fill="#000000" fill-rule="nonzero"/><use xlink:href="#gF9560AC257AD9BBCF737B0F29E336B2F" x="70.785" y="0" fill="#000000" fill-rule="nonzero"/><use xlink:href="#g8FE23DF7094EE2D558758B421CB0DF33" x="76.494" y="0" fill="#000000" fill-rule="nonzero"/><use xlink:href="#gB38329E71763B8BD4CF776D24C5AFFE1" x="82.335" y="0" fill="#000000" fill-rule="nonzero"/></g></g></g><path fill="none" stroke="#000000" stroke-width="1" stroke-linecap="butt" stroke-linejoin="miter" stroke-miterlimit="4" transform="translate(310.101511339 154.495994457)" d="M 0 0m 75.713 0c -41.777221992 0 -75.713 9.017657704 -75.713 20.119c 0 11.101342296 33.935778008 20.119 75.713 20.119c 41.777221992 0 75.713 -9.017657704 75.713 -20.119c 0 -11.101342296 -33.935778008 -20.119 -75.713 -20.119Z "/><path fill="none" transform="translate(326.601511479 170.995994568)" d="M 0 0h 118.426v 7.238h -118.426v -7.238Z "/><g transform="translate(326.601511353 170.995994505)"><g><g transform="matrix(1 0 0 -1 0 7.238)"><use xlink:href="#gF9560AC257AD9BBCF737B0F29E336B2F" x="0" y="0" fill="#000000" fill-rule="nonzero"/><use xlink:href="#g36F90904A4043C6A677E73471A30013F" x="5.709" y="0" fill="#000000" fill-rule="nonzero"/><use xlink:href="#g9787446D80B11CDE2529516BF2D1ACCA" x="8.613" y="0" fill="#000000" fill-rule="nonzero"/><use xlink:href="#g3CE57ED74C3DBA63F54F2735C0855367" x="13.64" y="0" fill="#000000" fill-rule="nonzero"/><use xlink:href="#gBFE09989B12480F1B7796D69E0D7287C" x="18.348" y="0" fill="#000000" fill-rule="nonzero"/><use xlink:href="#g525D29E90AD4E5DCC336104F62B1760B" x="23.265" y="0" fill="#000000" fill-rule="nonzero"/><use xlink:href="#g5E76F8DBE7C3C7A9A461E8EC1D70F6FB" x="29.183" y="0" fill="#000000" fill-rule="nonzero"/><use xlink:href="#g36F90904A4043C6A677E73471A30013F" x="34.727" y="0" fill="#000000" fill-rule="nonzero"/><use xlink:href="#g7FF42B92D9D80783DC2C1CC317042C56" x="37.631" y="0" fill="#000000" fill-rule="nonzero"/><use xlink:href="#gBFE09989B12480F1B7796D69E0D7287C" x="43.197" y="0" fill="#000000" fill-rule="nonzero"/><use xlink:href="#gD91D82170ED5F219BEA1B53E81DC19AF" x="48.114" y="0" fill="#000000" fill-rule="nonzero"/><use xlink:href="#g1A21308A8093B77381851E026859DC0C" x="52.206" y="0" fill="#000000" fill-rule="nonzero"/><use xlink:href="#gDD50B131DFBA2C7EA73123CA4C98C33" x="55.924" y="0" fill="#000000" fill-rule="nonzero"/><use xlink:href="#gEB245AFE22C398BE296AC5F7AF6ADF12" x="58.905" y="0" fill="#000000" fill-rule="nonzero"/><use xlink:href="#g36F90904A4043C6A677E73471A30013F" x="64.867" y="0" fill="#000000" fill-rule="nonzero"/><use xlink:href="#gDD50B131DFBA2C7EA73123CA4C98C33" x="67.771" y="0" fill="#000000" fill-rule="nonzero"/><use xlink:href="#gEB245AFE22C398BE296AC5F7AF6ADF12" x="70.752" y="0" fill="#000000" fill-rule="nonzero"/><use xlink:href="#gBFE09989B12480F1B7796D69E0D7287C" x="76.714" y="0" fill="#000000" fill-rule="nonzero"/><use xlink:href="#g1A21308A8093B77381851E026859DC0C" x="81.631" y="0" fill="#000000" fill-rule="nonzero"/><use xlink:href="#gEEC20B8710F33D8A6862F31BD530D033" x="85.349" y="0" fill="#000000" fill-rule="nonzero"/><use xlink:href="#gBFE09989B12480F1B7796D69E0D7287C" x="90.849" y="0" fill="#000000" fill-rule="nonzero"/><use xlink:href="#gEB245AFE22C398BE296AC5F7AF6ADF12" x="95.766" y="0" fill="#000000" fill-rule="nonzero"/><use xlink:href="#gBFE09989B12480F1B7796D69E0D7287C" x="101.728" y="0" fill="#000000" fill-rule="nonzero"/><use xlink:href="#gD91D82170ED5F219BEA1B53E81DC19AF" x="106.645" y="0" fill="#000000" fill-rule="nonzero"/><use xlink:href="#gDD50B131DFBA2C7EA73123CA4C98C33" x="110.737" y="0" fill="#000000" fill-rule="nonzero"/><use xlink:href="#g3CE57ED74C3DBA63F54F2735C0855367" x="113.718" y="0" fill="#000000" fill-rule="nonzero"/></g></g></g><path fill="none" stroke="#000000" stroke-width="1" stroke-linecap="butt" stroke-linejoin="miter" stroke-miterlimit="4" transform="translate(141.810996157 154.495994457)" d="M 0 0m 75.0035 0c -41.385731244 0 -75.0035 9.017657704 -75.0035 20.119c 0 11.101342296 33.617768756 20.119 75.0035 20.119c 41.385731244 0 75.0035 -9.017657704 75.0035 -20.119c 0 -11.101342296 -33.617768756 -20.119 -75.0035 -20.119Z "/><path fill="none" transform="translate(158.31099622 170.995994568)" d="M 0 0h 117.007v 7.238h -117.007v -7.238Z "/><g transform="translate(158.310996142 170.995994505)"><g><g transform="matrix(1 0 0 -1 0 7.238)"><use xlink:href="#gF9560AC257AD9BBCF737B0F29E336B2F" x="0" y="0" fill="#000000" fill-rule="nonzero"/><use xlink:href="#g36F90904A4043C6A677E73471A30013F" x="5.709" y="0" fill="#000000" fill-rule="nonzero"/><use xlink:href="#g9787446D80B11CDE2529516BF2D1ACCA" x="8.613" y="0" fill="#000000" fill-rule="nonzero"/><use xlink:href="#g3CE57ED74C3DBA63F54F2735C0855367" x="13.64" y="0" fill="#000000" fill-rule="nonzero"/><use xlink:href="#gBFE09989B12480F1B7796D69E0D7287C" x="18.348" y="0" fill="#000000" fill-rule="nonzero"/><use xlink:href="#g525D29E90AD4E5DCC336104F62B1760B" x="23.265" y="0" fill="#000000" fill-rule="nonzero"/><use xlink:href="#g5E76F8DBE7C3C7A9A461E8EC1D70F6FB" x="29.183" y="0" fill="#000000" fill-rule="nonzero"/><use xlink:href="#g36F90904A4043C6A677E73471A30013F" x="34.727" y="0" fill="#000000" fill-rule="nonzero"/><use xlink:href="#g7FF42B92D9D80783DC2C1CC317042C56" x="37.631" y="0" fill="#000000" fill-rule="nonzero"/><use xlink:href="#gBFE09989B12480F1B7796D69E0D7287C" x="43.197" y="0" fill="#000000" fill-rule="nonzero"/><use xlink:href="#gD91D82170ED5F219BEA1B53E81DC19AF" x="48.114" y="0" fill="#000000" fill-rule="nonzero"/><use xlink:href="#g1A21308A8093B77381851E026859DC0C" x="52.206" y="0" fill="#000000" fill-rule="nonzero"/><use xlink:href="#g2E78C0ACEE1FBDF39EC1D5F9B4AD747D" x="55.924" y="0" fill="#000000" fill-rule="nonzero"/><use xlink:href="#g36F90904A4043C6A677E73471A30013F" x="61.347" y="0" fill="#000000" fill-rule="nonzero"/><use xlink:href="#g5E76F8DBE7C3C7A9A461E8EC1D70F6FB" x="64.251" y="0" fill="#000000" fill-rule="nonzero"/><use xlink:href="#g3CE57ED74C3DBA63F54F2735C0855367" x="69.872" y="0" fill="#000000" fill-rule="nonzero"/><use xlink:href="#g767961B2EBA2E1AFD166EADCDBCFA26C" x="74.58" y="0" fill="#000000" fill-rule="nonzero"/><use xlink:href="#g1A21308A8093B77381851E026859DC0C" x="80.212" y="0" fill="#000000" fill-rule="nonzero"/><use xlink:href="#gEEC20B8710F33D8A6862F31BD530D033" x="83.93" y="0" fill="#000000" fill-rule="nonzero"/><use xlink:href="#gBFE09989B12480F1B7796D69E0D7287C" x="89.43" y="0" fill="#000000" fill-rule="nonzero"/><use xlink:href="#gEB245AFE22C398BE296AC5F7AF6ADF12" x="94.347" y="0" fill="#000000" fill-rule="nonzero"/><use xlink:href="#gBFE09989B12480F1B7796D69E0D7287C" x="100.309" y="0" fill="#000000" fill-rule="nonzero"/><use xlink:href="#gD91D82170ED5F219BEA1B53E81DC19AF" x="105.226" y="0" fill="#000000" fill-rule="nonzero"/><use xlink:href="#gDD50B131DFBA2C7EA73123CA4C98C33" x="109.318" y="0" fill="#000000" fill-rule="nonzero"/><use xlink:href="#g3CE57ED74C3DBA63F54F2735C0855367" x="112.299" y="0" fill="#000000" fill-rule="nonzero"/></g></g></g><path fill="none" stroke="#000000" stroke-width="1" stroke-linecap="butt" stroke-linejoin="miter" stroke-miterlimit="4" transform="translate(0 154.495994457)" d="M 0 0m 61.8145 0c -34.108252068 0 -61.8145 9.017657704 -61.8145 20.119c 0 11.101342296 27.706247932 20.119 61.8145 20.119c 34.108252068 0 61.8145 -9.017657704 61.8145 -20.119c 0 -11.101342296 -27.706247932 -20.119 -61.8145 -20.119Z "/><path fill="none" transform="translate(16.500000035 170.995994568)" d="M 0 0h 90.629v 7.238h -90.629v -7.238Z "/><g transform="translate(16.499999925 170.995994505)"><g><g transform="matrix(1 0 0 -1 0 7.238)"><use xlink:href="#g4E5D026409004C23B788CF76C0C2AF69" x="0" y="0" fill="#000000" fill-rule="nonzero"/><use xlink:href="#g5E76F8DBE7C3C7A9A461E8EC1D70F6FB" x="4.29" y="0" fill="#000000" fill-rule="nonzero"/><use xlink:href="#g8FE23DF7094EE2D558758B421CB0DF33" x="9.834" y="0" fill="#000000" fill-rule="nonzero"/><use xlink:href="#gD91D82170ED5F219BEA1B53E81DC19AF" x="15.675" y="0" fill="#000000" fill-rule="nonzero"/><use xlink:href="#g3CE57ED74C3DBA63F54F2735C0855367" x="19.679" y="0" fill="#000000" fill-rule="nonzero"/><use xlink:href="#gBFE09989B12480F1B7796D69E0D7287C" x="24.387" y="0" fill="#000000" fill-rule="nonzero"/><use xlink:href="#g1A21308A8093B77381851E026859DC0C" x="29.304" y="0" fill="#000000" fill-rule="nonzero"/><use xlink:href="#g3CE57ED74C3DBA63F54F2735C0855367" x="33.022" y="0" fill="#000000" fill-rule="nonzero"/><use xlink:href="#g5E76F8DBE7C3C7A9A461E8EC1D70F6FB" x="37.73" y="0" fill="#000000" fill-rule="nonzero"/><use xlink:href="#g7FF42B92D9D80783DC2C1CC317042C56" x="43.351" y="0" fill="#000000" fill-rule="nonzero"/><use xlink:href="#gBFE09989B12480F1B7796D69E0D7287C" x="48.917" y="0" fill="#000000" fill-rule="nonzero"/><use xlink:href="#g1A21308A8093B77381851E026859DC0C" x="53.834" y="0" fill="#000000" fill-rule="nonzero"/><use xlink:href="#gEEC20B8710F33D8A6862F31BD530D033" x="57.552" y="0" fill="#000000" fill-rule="nonzero"/><use xlink:href="#gBFE09989B12480F1B7796D69E0D7287C" x="63.052" y="0" fill="#000000" fill-rule="nonzero"/><use xlink:href="#gEB245AFE22C398BE296AC5F7AF6ADF12" x="67.969" y="0" fill="#000000" fill-rule="nonzero"/><use xlink:href="#gBFE09989B12480F1B7796D69E0D7287C" x="73.931" y="0" fill="#000000" fill-rule="nonzero"/><use xlink:href="#gD91D82170ED5F219BEA1B53E81DC19AF" x="78.848" y="0" fill="#000000" fill-rule="nonzero"/><use xlink:href="#gDD50B131DFBA2C7EA73123CA4C98C33" x="82.94" y="0" fill="#000000" fill-rule="nonzero"/><use xlink:href="#g3CE57ED74C3DBA63F54F2735C0855367" x="85.921" y="0" fill="#000000" fill-rule="nonzero"/></g></g></g><path fill="none" stroke="#000000" stroke-width="1" stroke-linecap="butt" stroke-linejoin="miter" stroke-miterlimit="4" transform="translate(227.33963473 37.286625038)" d="M 0 0c 20.574884164 12.312831475 41.627668923 24.803122 61.09261852 36.391272834"/><path fill="#000000" fill-rule="nonzero" stroke="#000000" stroke-width="1" stroke-linecap="butt" stroke-linejoin="miter" stroke-miterlimit="4" transform="translate(287.229664883 71.194149124)" d="M 0 0m 8.937877479 7.092022372l -5.673599674 -7.092022372l -3.264277805 5.479303932l 8.937877479 1.61271844Z "/><path fill="none" stroke="#000000" stroke-width="1" stroke-linecap="butt" stroke-linejoin="miter" stroke-miterlimit="4" transform="translate(147.838484842 38.911397498)" d="M 0 0m 33.233638034 0c -10.601781014 10.146432627 -22.511153306 21.499569913 -33.233638034 31.72641621"/><path fill="#000000" fill-rule="nonzero" stroke="#000000" stroke-width="1" stroke-linecap="butt" stroke-linejoin="miter" stroke-miterlimit="4" transform="translate(141.323650425 68.67555127)" d="M 0 0m 0 8.177390493l 8.354305123 -3.562597456l -4.402495481 -4.614793037l -3.951809642 8.177390493Z "/><path fill="none" stroke="#000000" stroke-width="1" stroke-linecap="butt" stroke-linejoin="miter" stroke-miterlimit="4" transform="translate(89.976274343 39.751263834)" d="M 0 0c 4.785448591 8.796138923 10.39943019 19.102933251 15.537601558 28.535188357"/><path fill="#000000" fill-rule="nonzero" stroke="#000000" stroke-width="1" stroke-linecap="butt" stroke-linejoin="miter" stroke-miterlimit="4" transform="translate(102.952639628 67.200012825)" d="M 0 0m 6.868470387 8.99331086l -1.267625764 -8.99331086l -5.600844624 3.051036057l 6.868470387 5.942274803Z "/><path fill="none" stroke="#000000" stroke-width="1" stroke-linecap="butt" stroke-linejoin="miter" stroke-miterlimit="4" transform="translate(108.057694657 36.539177787)" d="M 0 0c 19.607303578 10.423801095 35.09719463 17.593448311 49.756801564 22.703815133"/><path fill="none" stroke="#000000" stroke-width="1" stroke-linecap="butt" stroke-linejoin="miter" stroke-miterlimit="4" transform="translate(157.81449622 59.24299292)" d="M 0 0c 28.249543861 9.847837655 60.096107038 17.651929819 97.724207 25.171587558"/><path fill="#000000" fill-rule="nonzero" stroke="#000000" stroke-width="1" stroke-linecap="butt" stroke-linejoin="miter" stroke-miterlimit="4" transform="translate(255.414265974 81.381911435)" d="M 0 0m 8.959323632 4.76923477l -7.729224658 -4.76923477l -1.230098974 6.258205609l 8.959323632 -1.488970839Z "/><path fill="none" stroke="#000000" stroke-width="1" stroke-linecap="butt" stroke-linejoin="miter" stroke-miterlimit="4" transform="translate(366.672183322 36.996455817)" d="M 0 0m 65.590925847 0c -22.300804141 12.658779825 -44.740296482 25.27709422 -65.590925847 37.047361037"/><path fill="#000000" fill-rule="nonzero" stroke="#000000" stroke-width="1" stroke-linecap="butt" stroke-linejoin="miter" stroke-miterlimit="4" transform="translate(358.832661575 71.513175837)" d="M 0 0m 0 6.959272982l 8.972697317 -1.406135572l -3.137028208 -5.553137409l -5.835669109 6.959272982Z "/><path fill="none" stroke="#000000" stroke-width="1" stroke-linecap="butt" stroke-linejoin="miter" stroke-miterlimit="4" transform="translate(328.383060617 40.210224951)" d="M 0 0m 1.416881188 0c -0.427757358 8.04312205 -0.94041942 17.686328669 -1.416881188 26.647141071"/><path fill="#000000" fill-rule="nonzero" stroke="#000000" stroke-width="1" stroke-linecap="butt" stroke-linejoin="miter" stroke-miterlimit="4" transform="translate(325.172032609 67.187318378)" d="M 0 0m 2.732898288 8.661280645l 3.636055687 -8.322596621l -6.368953975 -0.338684024l 2.732898288 8.661280645Z "/><path fill="none" stroke="#000000" stroke-width="1" stroke-linecap="butt" stroke-linejoin="miter" stroke-miterlimit="4" transform="translate(341.461595507 117.031554039)" d="M 0 0c 7.128390171 9.104059277 15.555544181 19.854770438 23.250516209 29.676138136"/><path fill="#000000" fill-rule="nonzero" stroke="#000000" stroke-width="1" stroke-linecap="butt" stroke-linejoin="miter" stroke-miterlimit="4" transform="translate(362.509990145 145.134786968)" d="M 0 0m 7.754504311 8.661059394l -2.733599342 -8.661059394l -5.020904969 3.93303887l 7.754504311 4.728020524Z "/><path fill="none" stroke="#000000" stroke-width="1" stroke-linecap="butt" stroke-linejoin="miter" stroke-miterlimit="4" transform="translate(251.539621387 116.11400788)" d="M 0 0m 49.240933577 0c -15.578173813 10.709180353 -33.12489164 22.720472832 -49.240933577 33.781675719"/><path fill="#000000" fill-rule="nonzero" stroke="#000000" stroke-width="1" stroke-linecap="butt" stroke-linejoin="miter" stroke-miterlimit="4" transform="translate(244.11746337 147.549994611)" d="M 0 0m 0 7.442987815l 8.815335789 -2.185490774l -3.610679471 -5.25749704l -5.204656318 7.442987815Z "/><path fill="none" stroke="#000000" stroke-width="1" stroke-linecap="butt" stroke-linejoin="miter" stroke-miterlimit="4" transform="translate(144.210303219 116.671186829)" d="M 0 0c 12.758236101 10.028708331 27.629688654 21.69029043 41.226245579 32.372992991"/><path fill="#000000" fill-rule="nonzero" stroke="#000000" stroke-width="1" stroke-linecap="butt" stroke-linejoin="miter" stroke-miterlimit="4" transform="translate(183.858821899 146.846100543)" d="M 0 0m 8.656368463 7.762584433l -4.714742636 -7.762584433l -3.941625827 5.014166662l 8.656368463 2.748417771Z "/><path fill="none" stroke="#000000" stroke-width="1" stroke-linecap="butt" stroke-linejoin="miter" stroke-miterlimit="4" transform="translate(82.762413227 117.171953746)" d="M 0 0m 23.30041514 0c -7.072150266 9.026890061 -15.515671881 19.797255925 -23.30041514 29.737722104"/><path fill="#000000" fill-rule="nonzero" stroke="#000000" stroke-width="1" stroke-linecap="butt" stroke-linejoin="miter" stroke-miterlimit="4" transform="translate(77.212220724 145.337641366)" d="M 0 0m 0 8.661903484l 7.753043303 -4.730415924l -5.022119778 -3.931487561l -2.730923525 8.661903484Z "/></g></g><defs><symbol id="gF9560AC257AD9BBCF737B0F29E336B2F" overflow="visible"><path d="M 0 0m 1.716 4.048c -0.011 0.33 -0.033 0.616 -0.088 0.726c -0.022 0.055 -0.044 0.088 -0.132 0.088c -0.308 -0.121 -0.594 -0.22 -1.353 -0.319c -0.022 -0.066 0 -0.242 0.022 -0.308c 0.594 -0.055 0.715 -0.11 0.715 -0.748v -4.697c 0 -0.913 -0.121 -0.968 -0.792 -1.001c -0.066 -0.066 -0.066 -0.297 0 -0.363c 0.385 0.011 0.792 0.022 1.232 0.022c 0.44 0 0.968 -0.011 1.331 -0.022c 0.066 0.066 0.066 0.297 0 0.363c -0.781 0.044 -0.902 0.088 -0.902 1.001v 1.188c 0 0.143 0.044 0.132 0.154 0.088c 0.275 -0.11 0.605 -0.176 0.957 -0.176c 0.616 0 1.166 0.187 1.617 0.616c 0.517 0.506 0.814 1.188 0.814 2.079c 0 1.166 -0.825 2.244 -1.947 2.244c -0.506 0 -1.067 -0.33 -1.507 -0.825c -0.066 -0.066 -0.11 -0.066 -0.121 0.044Z m 0.209 -0.407c 0.286 0.352 0.792 0.682 1.111 0.682c 0.704 0 1.309 -0.792 1.309 -2.035c 0 -0.902 -0.319 -2.024 -1.551 -2.024c -0.198 0 -0.583 0.055 -0.781 0.231c -0.22 0.198 -0.264 0.264 -0.264 0.66v 2.002c 0 0.231 0.044 0.33 0.176 0.484Z "/></symbol><symbol id="g36F90904A4043C6A677E73471A30013F" overflow="visible"><path d="M 0 0m 1.045 1.342c 0 -0.913 -0.121 -0.968 -0.792 -1.001c -0.066 -0.066 -0.066 -0.297 0 -0.363c 0.385 0.011 0.792 0.022 1.232 0.022c 0.44 0 0.858 -0.011 1.221 -0.022c 0.066 0.066 0.066 0.297 0 0.363c -0.671 0.033 -0.792 0.088 -0.792 1.001v 5.071c 0 0.715 0.044 1.155 0.044 1.155c 0 0.077 -0.044 0.11 -0.143 0.11c -0.275 -0.11 -1.1 -0.264 -1.54 -0.297c -0.022 -0.088 0 -0.264 0.066 -0.33c 0.638 -0.044 0.704 -0.077 0.704 -0.902Z "/></symbol><symbol id="g9787446D80B11CDE2529516BF2D1ACCA" overflow="visible"><path d="M 0 0m 3.223 0.528c 0.066 -0.341 0.187 -0.638 0.737 -0.638c 0.418 0 0.814 0.187 1.045 0.407c -0.022 0.132 -0.066 0.231 -0.187 0.297c -0.077 -0.066 -0.264 -0.176 -0.407 -0.176c -0.319 0 -0.33 0.429 -0.33 0.935v 1.617c 0 1.562 -0.858 1.859 -1.661 1.859c -0.902 0 -1.815 -0.594 -1.815 -1.221c 0 -0.264 0.132 -0.396 0.385 -0.396c 0.319 0 0.517 0.231 0.517 0.374c 0 0.077 -0.011 0.154 -0.033 0.198c -0.011 0.033 -0.022 0.099 -0.022 0.22c 0 0.341 0.462 0.462 0.88 0.462c 0.374 0 0.891 -0.187 0.891 -1.43c 0 -0.077 -0.033 -0.121 -0.066 -0.132l -0.946 -0.231c -1.056 -0.264 -1.815 -0.847 -1.815 -1.595c 0 -0.902 0.616 -1.188 1.386 -1.188c 0.385 0 0.715 0.088 1.199 0.462l 0.22 0.176Z m 0 2.035v -1.452c 0 -0.143 -0.066 -0.22 -0.154 -0.286c -0.286 -0.231 -0.66 -0.484 -0.968 -0.484c -0.55 0 -0.792 0.44 -0.792 0.781c 0 0.495 0.231 1.001 1.045 1.21Z "/></symbol><symbol id="g3CE57ED74C3DBA63F54F2735C0855367" overflow="visible"><path d="M 0 0m 4.378 1.001c -0.044 0.099 -0.132 0.143 -0.231 0.154c -0.374 -0.484 -0.847 -0.726 -1.32 -0.726c -0.803 0 -1.474 0.814 -1.474 2.101c 0 1.21 0.528 1.936 1.254 1.936c 0.649 0 0.737 -0.385 0.781 -0.77c 0.033 -0.297 0.187 -0.396 0.418 -0.396c 0.231 0 0.539 0.143 0.539 0.484c 0 0.605 -0.627 1.045 -1.683 1.045c -1.089 0 -2.255 -0.979 -2.255 -2.541c 0 -1.419 0.792 -2.398 2.178 -2.398c 0.66 0 1.243 0.209 1.793 1.111Z "/></symbol><symbol id="gBFE09989B12480F1B7796D69E0D7287C" overflow="visible"><path d="M 0 0m 4.246 1.023c -0.407 -0.418 -0.726 -0.594 -1.364 -0.594c -0.396 0 -0.858 0.231 -1.199 0.792c -0.22 0.363 -0.352 0.869 -0.352 1.507l 2.926 -0.022c 0.132 0 0.209 0.066 0.209 0.187c 0 0.924 -0.33 1.914 -1.859 1.914c -0.957 0 -2.2 -0.913 -2.2 -2.585c 0 -0.616 0.154 -1.21 0.517 -1.628c 0.374 -0.44 0.891 -0.704 1.683 -0.704c 0.836 0 1.43 0.385 1.87 0.957c -0.033 0.11 -0.099 0.165 -0.231 0.176Z m -2.882 2.079c 0.209 1.243 0.979 1.342 1.243 1.342c 0.418 0 0.913 -0.231 0.913 -1.155c 0 -0.099 -0.044 -0.154 -0.165 -0.154Z "/></symbol><symbol id="g525D29E90AD4E5DCC336104F62B1760B" overflow="visible"><path d="M 0 0m 1.837 3.146c 0 0.231 0.099 0.363 0.187 0.462c 0.418 0.407 0.979 0.649 1.408 0.649c 0.22 0 0.451 -0.143 0.583 -0.396c 0.11 -0.22 0.132 -0.517 0.132 -0.847v -1.672c 0 -0.902 -0.11 -0.946 -0.682 -1.001c -0.055 -0.066 -0.055 -0.297 0 -0.363c 0.308 0.011 0.682 0.022 1.122 0.022c 0.44 0 0.803 -0.011 1.166 -0.022c 0.055 0.066 0.055 0.297 0 0.363c -0.616 0.055 -0.737 0.099 -0.737 1.001v 1.639c 0 0.605 -0.044 1.144 -0.297 1.474c -0.187 0.242 -0.528 0.374 -0.913 0.374c -0.539 0 -1.199 -0.143 -1.87 -0.891c 0 -0.011 -0.011 -0.011 -0.022 -0.022c -0.033 -0.044 -0.088 -0.11 -0.088 0.022l 0.011 2.475c 0 0.715 0.044 1.155 0.044 1.155c 0 0.077 -0.044 0.11 -0.143 0.11c -0.275 -0.11 -1.1 -0.264 -1.54 -0.297c -0.022 -0.088 0 -0.264 0.066 -0.33c 0.033 0 0.066 0 0.099 0c 0.484 -0.033 0.605 -0.033 0.605 -0.902v -4.807c 0 -0.913 -0.132 -0.957 -0.77 -1.001c -0.066 -0.066 -0.066 -0.297 0 -0.363c 0.363 0.011 0.77 0.022 1.21 0.022c 0.418 0 0.781 -0.011 1.089 -0.022c 0.066 0.066 0.066 0.297 0 0.363c -0.561 0.044 -0.66 0.088 -0.66 1.001Z "/></symbol><symbol id="g5E76F8DBE7C3C7A9A461E8EC1D70F6FB" overflow="visible"><path d="M 0 0m 0.451 2.255c 0 -1.122 0.748 -2.365 2.31 -2.365c 0.704 0 1.243 0.253 1.617 0.616c 0.495 0.484 0.715 1.177 0.715 1.848c 0 1.144 -0.627 2.475 -2.31 2.475c -0.726 0 -1.32 -0.297 -1.727 -0.77c -0.396 -0.473 -0.605 -1.111 -0.605 -1.804Z m 2.167 2.189c 0.946 0 1.529 -0.858 1.529 -2.442c 0 -1.386 -0.715 -1.727 -1.232 -1.727c -1.144 0 -1.518 1.386 -1.518 2.233c 0 0.957 0.231 1.936 1.221 1.936Z "/></symbol><symbol id="g7FF42B92D9D80783DC2C1CC317042C56" overflow="visible"><path d="M 0 0m 3.674 0.55c 0.055 0.044 0.154 0.066 0.165 -0.011c 0.033 -0.264 0.121 -0.649 0.121 -0.649c 0.088 -0.033 0.143 -0.022 0.209 0c 0.242 0.198 0.627 0.363 1.298 0.44c 0.066 0.066 0.066 0.231 0 0.297c -0.704 0.055 -0.803 0.264 -0.803 0.803v 4.983c 0 0.715 0.044 1.155 0.044 1.155c 0 0.077 -0.044 0.11 -0.143 0.11c -0.275 -0.11 -1.1 -0.264 -1.54 -0.297c -0.022 -0.088 0 -0.264 0.066 -0.33c 0.033 0 0.066 0 0.099 0c 0.484 -0.033 0.605 -0.033 0.605 -0.902v -1.408c 0 -0.077 -0.022 -0.099 -0.099 -0.099c -0.044 0 -0.495 0.187 -0.858 0.187c -0.726 0 -1.21 -0.242 -1.65 -0.66c -0.473 -0.473 -0.759 -1.122 -0.759 -1.936c 0 -1.353 0.682 -2.343 1.87 -2.343c 0.429 0 0.836 0.22 1.375 0.66Z m 0.121 0.814c 0 -0.209 -0.022 -0.297 -0.176 -0.429c -0.407 -0.352 -0.759 -0.528 -1.034 -0.528c -0.594 0 -1.21 0.649 -1.21 2.024c 0 0.792 0.154 1.232 0.319 1.463c 0.341 0.517 0.803 0.55 1.023 0.55c 0.396 0 0.671 -0.143 0.891 -0.396c 0.154 -0.176 0.187 -0.253 0.187 -0.594Z "/></symbol><symbol id="gD91D82170ED5F219BEA1B53E81DC19AF" overflow="visible"><path d="M 0 0m 1.936 3.938c -0.022 0.44 -0.033 0.726 -0.088 0.836c -0.022 0.055 -0.044 0.088 -0.132 0.088c -0.308 -0.121 -0.594 -0.22 -1.353 -0.319c -0.022 -0.066 0 -0.242 0.022 -0.308c 0.594 -0.055 0.715 -0.11 0.715 -0.748v -2.145c 0 -0.913 -0.132 -0.957 -0.814 -1.001c -0.066 -0.066 -0.066 -0.297 0 -0.363c 0.385 0.011 0.814 0.022 1.254 0.022c 0.44 0 0.946 -0.011 1.331 -0.022c 0.066 0.066 0.066 0.297 0 0.363c -0.77 0.055 -0.902 0.088 -0.902 1.001v 1.529c 0 0.286 0.132 0.539 0.264 0.737c 0.121 0.176 0.374 0.539 0.506 0.539c 0.099 0 0.198 -0.022 0.286 -0.143c 0.077 -0.11 0.209 -0.253 0.396 -0.253c 0.264 0 0.517 0.275 0.517 0.55c 0 0.209 -0.198 0.528 -0.66 0.528c -0.517 0 -0.968 -0.484 -1.221 -0.913c -0.066 -0.121 -0.121 -0.033 -0.121 0.022Z "/></symbol><symbol id="g1A21308A8093B77381851E026859DC0C" overflow="visible"><path d="M 0 0m 2.981 2.453c 0.143 0 0.297 0.308 0.297 0.44c 0 0.11 -0.044 0.22 -0.154 0.22h -2.409c -0.132 0 -0.275 -0.253 -0.275 -0.451c 0 -0.11 0.066 -0.209 0.165 -0.209Z "/></symbol><symbol id="g56988988A1B18AD1D268C4FF00F68428" overflow="visible"><path d="M 0 0m 3.927 -0.11c 1.067 0 2.046 0.506 2.794 1.485c -0.055 0.099 -0.132 0.165 -0.253 0.165c -0.781 -0.858 -1.529 -1.199 -2.552 -1.199c -1.485 0 -2.508 1.672 -2.508 3.278c 0 0.946 0.253 1.738 0.649 2.233c 0.55 0.671 1.188 0.979 1.76 0.979c 1.518 0 2.123 -0.902 2.409 -1.848c 0.132 -0.044 0.242 -0.011 0.363 0.055c -0.055 0.572 -0.132 1.1 -0.242 1.705c -0.561 0.055 -1.056 0.495 -2.409 0.495c -0.935 0 -1.716 -0.341 -2.365 -0.935c -0.726 -0.671 -1.166 -1.749 -1.166 -2.893c 0 -1.914 1.155 -3.52 3.52 -3.52Z "/></symbol><symbol id="gD14A2C15FA7E7E6DA17092C3143CABC8" overflow="visible"><path d="M 0 0m 1.925 1.342v 2.948h 1.023c 0.099 0 0.253 0.044 0.253 0.143v 0.22c 0 0.044 -0.033 0.066 -0.088 0.066h -1.188v 0.627c 0 1.694 0.506 1.958 0.869 1.958c 0.33 0 0.506 -0.132 0.66 -0.517c 0.088 -0.198 0.209 -0.352 0.44 -0.352c 0.187 0 0.451 0.231 0.451 0.451c 0 0.187 -0.121 0.385 -0.352 0.561c -0.286 0.198 -0.572 0.231 -0.99 0.231c -0.924 0 -1.947 -0.803 -1.947 -2.519v -0.44h -0.561c -0.198 0 -0.253 -0.132 -0.253 -0.22v -0.143c 0 -0.055 0.011 -0.066 0.055 -0.066h 0.759v -2.948c 0 -0.913 -0.176 -0.957 -0.77 -1.001c -0.066 -0.066 -0.066 -0.297 0 -0.363c 0.385 0.011 0.77 0.022 1.21 0.022c 0.44 0 0.968 -0.011 1.353 -0.022c 0.066 0.066 0.066 0.297 0 0.363c -0.858 0.044 -0.924 0.088 -0.924 1.001Z "/></symbol><symbol id="g8FE23DF7094EE2D558758B421CB0DF33" overflow="visible"><path d="M 0 0m 2.387 -0.11c 0.429 0 0.946 0.22 1.485 0.66c 0.055 0.044 0.154 0.066 0.165 -0.011c 0.033 -0.275 0.121 -0.649 0.121 -0.649c 0.088 -0.033 0.143 -0.022 0.209 0c 0.242 0.198 0.627 0.363 1.298 0.44c 0.066 0.066 0.066 0.231 0 0.297c -0.704 0.055 -0.803 0.264 -0.803 0.803v 2.112c 0 0.33 0.044 1.133 0.044 1.133c 0 0.033 -0.033 0.066 -0.088 0.066c -0.055 -0.011 -0.22 -0.022 -0.385 -0.022c -0.352 0 -0.748 0.011 -1.122 0.022c -0.066 -0.066 -0.066 -0.297 0 -0.363c 0.539 -0.033 0.682 -0.165 0.682 -0.891v -2.123c 0 -0.209 -0.022 -0.297 -0.176 -0.429c -0.407 -0.352 -0.825 -0.528 -1.1 -0.528c -0.33 0 -0.88 0.154 -0.88 1.133v 2.002c 0 0.33 0.044 1.133 0.044 1.133c 0 0.033 -0.033 0.066 -0.088 0.066c -0.055 -0.011 -0.22 -0.022 -0.385 -0.022c -0.352 0 -0.748 0.011 -1.122 0.022c -0.066 -0.066 -0.066 -0.297 0 -0.363c 0.528 -0.044 0.682 -0.165 0.682 -0.88v -2.112c 0 -0.759 0.33 -1.496 1.419 -1.496Z "/></symbol><symbol id="gEB245AFE22C398BE296AC5F7AF6ADF12" overflow="visible"><path d="M 0 0m 2.024 3.938c -0.066 -0.077 -0.132 -0.099 -0.132 0c -0.011 0.297 -0.033 0.726 -0.088 0.836c -0.022 0.055 -0.044 0.088 -0.132 0.088c -0.308 -0.121 -0.594 -0.22 -1.353 -0.319c -0.022 -0.066 0 -0.242 0.022 -0.308c 0.594 -0.055 0.715 -0.11 0.715 -0.748v -2.145c 0 -0.902 -0.11 -0.946 -0.77 -1.001c -0.066 -0.066 -0.066 -0.297 0 -0.363c 0.33 0.011 0.77 0.022 1.21 0.022c 0.44 0 0.77 -0.011 1.1 -0.022c 0.066 0.066 0.066 0.297 0 0.363c -0.561 0.055 -0.671 0.099 -0.671 1.001v 1.804c 0 0.231 0.099 0.363 0.187 0.462c 0.418 0.407 0.913 0.649 1.342 0.649c 0.22 0 0.451 -0.143 0.583 -0.396c 0.11 -0.22 0.132 -0.517 0.132 -0.847v -1.672c 0 -0.902 -0.11 -0.946 -0.682 -1.001c -0.055 -0.066 -0.055 -0.297 0 -0.363c 0.33 0.011 0.682 0.022 1.122 0.022c 0.44 0 0.836 -0.011 1.166 -0.022c 0.055 0.066 0.055 0.297 0 0.363c -0.616 0.055 -0.737 0.099 -0.737 1.001v 1.639c 0 0.605 -0.044 1.133 -0.297 1.474c -0.187 0.242 -0.528 0.374 -0.913 0.374c -0.539 0 -1.155 -0.143 -1.804 -0.891Z "/></symbol><symbol id="gB38329E71763B8BD4CF776D24C5AFFE1" overflow="visible"><path d="M 0 0m 0.473 4.719c -0.154 0 -0.198 -0.132 -0.198 -0.22v -0.143c 0 -0.055 0.011 -0.066 0.055 -0.066h 0.649v -3.311c 0 -0.781 0.341 -1.089 0.847 -1.089c 0.506 0 1.056 0.242 1.485 0.726c -0.022 0.11 -0.088 0.176 -0.198 0.187c -0.286 -0.22 -0.616 -0.308 -0.902 -0.308c -0.297 0 -0.363 0.33 -0.363 1.012v 2.783h 1.144c 0.11 0 0.264 0.044 0.264 0.143v 0.22c 0 0.044 -0.033 0.066 -0.088 0.066h -1.32v 0.429c 0 0.715 0.044 1.155 0.044 1.155c 0 0.066 -0.033 0.099 -0.088 0.099c -0.044 0 -0.143 -0.044 -0.242 -0.099c -0.121 -0.066 -0.231 -0.121 -0.374 -0.154c -0.132 -0.044 -0.242 -0.077 -0.242 -0.154c 0 -0.132 0.033 -0.055 0.033 -1.276Z "/></symbol><symbol id="gDD50B131DFBA2C7EA73123CA4C98C33" overflow="visible"><path d="M 0 0m 1.991 1.342v 2.189c 0 0.55 0.044 1.254 0.044 1.254c 0 0.044 -0.055 0.077 -0.143 0.077c -0.308 -0.121 -0.748 -0.22 -1.507 -0.319c -0.022 -0.066 0 -0.242 0.022 -0.308c 0.605 -0.055 0.715 -0.121 0.715 -0.748v -2.145c 0 -0.913 -0.121 -0.946 -0.792 -1.001c -0.066 -0.066 -0.066 -0.297 0 -0.363c 0.363 0.011 0.792 0.022 1.232 0.022c 0.44 0 0.858 -0.011 1.221 -0.022c 0.066 0.066 0.066 0.297 0 0.363c -0.671 0.044 -0.792 0.088 -0.792 1.001Z m -1.001 5.247c 0 -0.286 0.264 -0.572 0.528 -0.572c 0.308 0 0.572 0.297 0.572 0.528c 0 0.264 -0.231 0.572 -0.528 0.572c -0.264 0 -0.572 -0.264 -0.572 -0.528Z "/></symbol><symbol id="gF9510C9866DCA99AFC3FC8A8DB318BDC" overflow="visible"><path d="M 0 0m 1.87 3.938c -0.011 0.33 -0.033 0.726 -0.088 0.836c -0.022 0.055 -0.044 0.088 -0.132 0.088c -0.308 -0.121 -0.594 -0.22 -1.353 -0.319c -0.022 -0.066 0 -0.242 0.022 -0.308c 0.594 -0.055 0.715 -0.11 0.715 -0.748v -2.145c 0 -0.902 -0.143 -0.957 -0.748 -1.001c -0.066 -0.066 -0.066 -0.297 0 -0.363c 0.33 0.011 0.748 0.022 1.188 0.022c 0.44 0 0.781 -0.011 1.111 -0.022c 0.066 0.066 0.066 0.297 0 0.363c -0.561 0.055 -0.682 0.099 -0.682 1.001v 1.804c 0 0.231 0.099 0.363 0.187 0.462c 0.44 0.429 0.847 0.649 1.188 0.649c 0.418 0 0.726 -0.264 0.726 -1.001v -1.914c 0 -0.902 -0.088 -0.957 -0.682 -1.001c -0.055 -0.066 -0.055 -0.297 0 -0.363c 0.275 0.011 0.682 0.022 1.122 0.022c 0.44 0 0.803 -0.011 1.078 -0.022c 0.055 0.066 0.055 0.297 0 0.363c -0.55 0.044 -0.649 0.099 -0.649 1.001v 1.749c 0 0.154 0 0.308 -0.011 0.44c 0.528 0.583 1.023 0.726 1.452 0.726c 0.418 0 0.66 -0.242 0.66 -0.979v -1.936c 0 -0.902 -0.11 -0.957 -0.682 -1.001c -0.055 -0.066 -0.055 -0.297 0 -0.363c 0.275 0.011 0.682 0.022 1.122 0.022c 0.44 0 0.825 -0.011 1.133 -0.022c 0.055 0.066 0.055 0.297 0 0.363c -0.605 0.044 -0.704 0.099 -0.704 1.001v 1.738c 0 0.979 -0.165 1.749 -1.133 1.749c -0.561 0 -1.243 -0.209 -1.815 -0.814c -0.033 -0.033 -0.099 -0.088 -0.121 0.011c -0.099 0.451 -0.528 0.803 -1.1 0.803c -0.638 0 -1.21 -0.374 -1.672 -0.891c -0.055 -0.055 -0.121 -0.132 -0.132 0Z "/></symbol><symbol id="g4E5D026409004C23B788CF76C0C2AF69" overflow="visible"><path d="M 0 0m 0.528 1.518c 0.044 -0.539 0.077 -1.056 0.077 -1.518c 0.11 0.022 0.22 0.033 0.275 0.033c 0.077 0 0.143 0 0.22 -0.022c 0.297 -0.077 0.594 -0.121 1.001 -0.121c 0.616 0 1.749 0.297 1.749 1.386c 0 0.748 -0.539 1.188 -1.287 1.463c -0.66 0.253 -1.1 0.418 -1.1 1.023c 0 0.451 0.396 0.704 0.77 0.704c 0.242 0 0.88 -0.088 1.023 -1.023c 0.066 -0.066 0.286 -0.055 0.352 0.011c 0.033 0.396 0.055 0.803 0.066 1.166c -0.341 0.055 -0.869 0.209 -1.441 0.209c -0.814 0 -1.551 -0.528 -1.551 -1.232c 0 -0.803 0.363 -1.144 1.21 -1.496c 0.913 -0.374 1.122 -0.605 1.122 -1.078c 0 -0.539 -0.528 -0.77 -0.935 -0.77c -0.429 0 -0.671 0.143 -0.781 0.264c -0.242 0.253 -0.363 0.737 -0.429 1.012c -0.066 0.066 -0.275 0.055 -0.341 -0.011Z "/></symbol><symbol id="g21CC2BA9157DFD492B07A3D0DECDE432" overflow="visible"><path d="M 0 0m 2.101 1.342v 4.411c 0 0.913 0.187 0.968 0.957 1.001c 0.066 0.066 0.066 0.297 0 0.363c -0.484 -0.011 -1.001 -0.022 -1.43 -0.022c -0.363 0 -0.902 0.011 -1.419 0.022c -0.066 -0.066 -0.066 -0.297 0 -0.363c 0.77 -0.033 0.957 -0.088 0.957 -1.001v -4.411c 0 -0.913 -0.187 -0.968 -0.957 -1.001c -0.066 -0.066 -0.066 -0.297 0 -0.363c 0.495 0.011 1.034 0.022 1.43 0.022c 0.396 0 0.924 -0.011 1.419 -0.022c 0.066 0.066 0.066 0.297 0 0.363c -0.77 0.033 -0.957 0.088 -0.957 1.001Z "/></symbol><symbol id="g214031308B8AA922748E7B1D12139F87" overflow="visible"><path d="M 0 0m 7.326 3.619c 0 2.277 -1.573 3.619 -3.542 3.619c -2.134 0 -3.377 -1.694 -3.377 -3.828c 0 -2.167 1.573 -3.52 3.443 -3.52c 1.221 0 2.189 0.528 2.794 1.386c 0.44 0.627 0.682 1.419 0.682 2.343Z m -3.685 3.223c 1.452 0 2.629 -1.21 2.629 -3.432c 0 -1.969 -0.946 -3.124 -2.2 -3.124c -1.342 0 -2.607 1.199 -2.607 3.311c 0 2.31 1.089 3.245 2.178 3.245Z "/></symbol><symbol id="gEEC20B8710F33D8A6862F31BD530D033" overflow="visible"><path d="M 0 0m 4.884 4.257c 0.209 0 0.407 0.198 0.407 0.418c 0 0.231 -0.209 0.407 -0.506 0.407c -0.286 0 -0.814 -0.187 -1.1 -0.561c -0.132 0.088 -0.495 0.308 -1.144 0.308c -0.979 0 -1.881 -0.66 -1.881 -1.672c 0 -0.594 0.264 -0.935 0.572 -1.232c -0.308 -0.264 -0.484 -0.737 -0.484 -1.111c 0 -0.396 0.22 -0.704 0.506 -0.847c -0.594 -0.352 -0.902 -0.858 -0.902 -1.331c 0 -0.957 0.902 -1.254 1.749 -1.254c 1.485 0 3.091 0.715 3.091 1.903c 0 0.352 -0.165 0.627 -0.484 0.891c -0.429 0.352 -1.199 0.363 -1.606 0.363c -0.198 0 -0.473 -0.022 -0.737 -0.055c -0.165 -0.011 -0.275 -0.022 -0.33 -0.022c -0.319 0 -0.704 0.154 -0.704 0.627c 0 0.22 0.066 0.451 0.198 0.638c 0.264 -0.154 0.572 -0.231 1.001 -0.231c 0.968 0 1.859 0.605 1.859 1.683c 0 0.517 -0.154 0.814 -0.473 1.144c 0.077 0.11 0.297 0.264 0.44 0.264c 0.077 0 0.154 -0.033 0.22 -0.132c 0.044 -0.088 0.187 -0.198 0.308 -0.198Z m -3.432 -4.367c 0.121 -0.033 0.297 -0.055 0.44 -0.055c 0.341 0 0.649 0.033 0.803 0.033c 0.55 0 1.012 -0.011 1.331 -0.187c 0.429 -0.242 0.561 -0.396 0.561 -0.682c 0 -0.792 -1.166 -1.21 -2.156 -1.21c -0.396 0 -1.32 0.319 -1.32 1.067c 0 0.374 0.022 0.649 0.341 1.034Z m 2.057 3.179c 0 -1.023 -0.517 -1.232 -0.924 -1.232c -0.924 0 -1.023 0.781 -1.023 1.485c 0 0.77 0.275 1.166 0.88 1.166c 0.693 0 1.067 -0.506 1.067 -1.419Z "/></symbol><symbol id="g2E78C0ACEE1FBDF39EC1D5F9B4AD747D" overflow="visible"><path d="M 0 0m 1.837 4.334c -0.066 -0.066 -0.11 -0.044 -0.11 0.055v 2.024c 0 0.715 0.044 1.155 0.044 1.155c 0 0.077 -0.044 0.11 -0.143 0.11c -0.275 -0.11 -1.1 -0.264 -1.54 -0.297c -0.022 -0.088 0 -0.264 0.066 -0.33c 0.033 0 0.066 0 0.099 0c 0.484 -0.033 0.605 -0.033 0.605 -0.902v -5.368c 0 -0.429 -0.011 -0.627 -0.044 -0.781c 0.055 -0.088 0.11 -0.132 0.242 -0.132c 0.066 0.066 0.176 0.165 0.264 0.264c 0.11 0.132 0.176 0.132 0.297 0.033c 0.253 -0.209 0.583 -0.275 0.968 -0.275c 1.122 0 2.431 1.023 2.431 2.772c 0 1.342 -0.99 2.167 -1.947 2.167c -0.473 0 -0.891 -0.187 -1.232 -0.495Z m 0.077 -0.341c 0.286 0.253 0.616 0.352 0.935 0.352c 0.671 0 1.221 -0.814 1.221 -1.881c 0 -1.254 -0.506 -2.2 -1.551 -2.2c -0.341 0 -0.572 0.242 -0.792 0.517v 2.75c 0 0.231 0.044 0.341 0.187 0.462Z "/></symbol><symbol id="g767961B2EBA2E1AFD166EADCDBCFA26C" overflow="visible"><path d="M 0 0m 0.946 1.342c 0 -0.913 -0.121 -0.957 -0.737 -1.001c -0.066 -0.066 -0.066 -0.297 0 -0.363c 0.363 0.011 0.737 0.022 1.177 0.022c 0.385 0 0.748 -0.011 1.001 -0.022c 0.066 0.066 0.066 0.297 0 0.363c -0.451 0.044 -0.572 0.088 -0.572 1.001v 0.957c 0.209 -0.011 0.363 -0.022 0.473 -0.055c 0.121 -0.088 0.22 -0.187 0.352 -0.363l 0.803 -1.078c 0.319 -0.429 0.451 -0.638 0.462 -0.77c 0 -0.033 0.011 -0.055 0.044 -0.055c 0.22 0.011 0.462 0.022 0.682 0.022c 0.341 0 0.682 -0.011 0.902 -0.022c 0.066 0.066 0.066 0.297 0 0.363c -0.374 0.044 -0.649 0.088 -0.946 0.462l -1.452 1.826c -0.044 0.055 -0.077 0.099 -0.077 0.154c 0 0.044 0 0.066 0.044 0.11l 0.968 1.001c 0.33 0.352 0.715 0.44 1.155 0.484c 0.066 0.066 0.066 0.297 0 0.363c -0.253 -0.011 -0.561 -0.022 -0.957 -0.022c -0.418 0 -0.825 0.011 -1.078 0.022c -0.066 -0.066 -0.066 -0.297 0 -0.363c 0.616 -0.044 0.352 -0.429 0.253 -0.561c -0.253 -0.319 -0.594 -0.693 -0.88 -0.902c -0.242 -0.176 -0.539 -0.308 -0.748 -0.341v 3.839c 0 0.715 0.044 1.155 0.044 1.155c 0 0.077 -0.044 0.11 -0.143 0.11c -0.275 -0.11 -1.1 -0.264 -1.54 -0.297c -0.022 -0.088 0 -0.264 0.066 -0.33c 0.033 0 0.066 0 0.099 0c 0.484 -0.033 0.605 -0.033 0.605 -0.902Z "/></symbol></defs></svg>